<svg width="16" height="12" viewBox="0 0 16 12" fill="none" xmlns="http://www.w3.org/2000/svg">
<path fill-rule="evenodd" clip-rule="evenodd" d="M1.47797 6.46657C1.32873 6.28226 1.20691 6.12331 1.11519 6.00001C1.20691 5.87672 1.32873 5.71777 1.47797 5.53346C1.84654 5.07825 2.37913 4.47234 3.03537 3.86798C4.3657 2.64282 6.12141 1.50037 7.99983 1.50037C9.87825 1.50037 11.634 2.64282 12.9643 3.86798C13.6205 4.47234 14.1531 5.07825 14.5217 5.53346C14.6709 5.71777 14.7927 5.87672 14.8845 6.00001C14.7927 6.12331 14.6709 6.28226 14.5217 6.46657C14.1531 6.92178 13.6205 7.52769 12.9643 8.13205C11.634 9.35721 9.87825 10.4997 7.99983 10.4997C6.12141 10.4997 4.3657 9.35721 3.03537 8.13205C2.37913 7.52769 1.84654 6.92178 1.47797 6.46657ZM15.9145 5.72096C15.9146 5.72111 15.9147 5.72125 15.4997 6.00001C15.9147 6.27878 15.9146 6.27892 15.9145 6.27907L15.9143 6.27947L15.9135 6.28062L15.911 6.28428L15.9024 6.29691C15.895 6.30766 15.8844 6.32302 15.8707 6.34268C15.8432 6.38199 15.8031 6.43854 15.751 6.50985C15.6468 6.65243 15.4944 6.85435 15.2989 7.09585C14.9084 7.57807 14.3427 8.22208 13.6417 8.86763C12.2577 10.1423 10.2634 11.4997 7.99983 11.4997C5.73621 11.4997 3.742 10.1423 2.35793 8.86763C1.65697 8.22208 1.09123 7.57807 0.700781 7.09585C0.505246 6.85435 0.352871 6.65243 0.248677 6.50985C0.196561 6.43854 0.156444 6.38199 0.128955 6.34268C0.115208 6.32302 0.104614 6.30766 0.0972506 6.29691L0.0886363 6.28428L0.0861636 6.28062L0.0853889 6.27947L0.0851174 6.27907C0.0850139 6.27892 0.0849233 6.27878 0.5 6.00001C0.0849233 5.72125 0.0850139 5.72111 0.0851174 5.72096L0.0853889 5.72055L0.0861636 5.7194L0.0886363 5.71575L0.0972506 5.70312C0.104614 5.69237 0.115208 5.67701 0.128955 5.65735C0.156444 5.61803 0.196561 5.56149 0.248677 5.49017C0.352871 5.34759 0.505246 5.14568 0.700781 4.90418C1.09123 4.42195 1.65697 3.77795 2.35793 3.1324C3.742 1.85774 5.73621 0.500366 7.99983 0.500366C10.2634 0.500366 12.2577 1.85774 13.6417 3.1324C14.3427 3.77795 14.9084 4.42195 15.2989 4.90418C15.4944 5.14568 15.6468 5.34759 15.751 5.49017C15.8031 5.56149 15.8432 5.61803 15.8707 5.65735C15.8844 5.67701 15.895 5.69237 15.9024 5.70312L15.911 5.71575L15.9135 5.7194L15.9143 5.72055L15.9145 5.72096ZM15.4997 6.00001L15.9147 5.72125C16.028 5.88984 16.028 6.11018 15.9147 6.27878L15.4997 6.00001ZM0.0849233 5.72125L0.5 6.00001L0.0849233 6.27878C-0.0283078 6.11018 -0.0283078 5.88984 0.0849233 5.72125ZM5.56348 5.92004C5.56348 4.64107 6.65944 3.5631 8.06341 3.5631C9.46737 3.5631 10.5633 4.64107 10.5633 5.92004C10.5633 7.19901 9.46737 8.27698 8.06341 8.27698C6.65944 8.27698 5.56348 7.19901 5.56348 5.92004ZM8.06341 2.5631C6.15374 2.5631 4.56348 4.04332 4.56348 5.92004C4.56348 7.79676 6.15374 9.27698 8.06341 9.27698C9.97308 9.27698 11.5633 7.79676 11.5633 5.92004C11.5633 4.04332 9.97308 2.5631 8.06341 2.5631Z" fill="#BCBCBC"/>
</svg>
