<svg width="324" height="33" viewBox="0 0 324 33" fill="none" xmlns="http://www.w3.org/2000/svg">
<path d="M22.538 1.26464H0.294434V2.48347C3.29797 2.70111 3.64621 2.78817 3.64621 4.39877V28.6012C3.64621 30.2118 3.29797 30.2988 0.294434 30.5165V31.7353H22.8427L23.278 24.5094H22.0592C20.9274 28.7753 18.9251 30.0812 15.5733 30.0812H8.6521V17.1094H12.3521C15.0074 17.1094 16.6615 17.98 17.0533 21.4623H18.2721V10.9282H17.0533C16.6615 14.4106 15.0074 15.2811 12.3521 15.2811H8.6521V2.91876H15.8345C19.1862 2.91876 20.6662 4.747 21.5368 8.49054H22.7557L22.538 1.26464Z" fill="#007EA8"/>
<path d="M38.2909 2.91876C43.0356 2.91876 44.4286 6.48818 44.4286 9.97054C44.4286 13.8011 42.9486 17.0659 37.3333 17.0659H34.2427V2.91876H38.2909ZM25.885 1.26464V2.48347C28.8886 2.70111 29.2368 2.78817 29.2368 4.39877V28.6012C29.2368 30.2118 28.8886 30.2988 25.885 30.5165V31.7353H37.5945V30.5165C34.5909 30.2988 34.2427 30.2118 34.2427 28.6012V18.8941H37.5074C46.6486 18.8941 49.7392 13.8882 49.7392 9.53525C49.7392 4.747 46.0392 1.26464 39.5098 1.26464H25.885Z" fill="#007EA8"/>
<path d="M67.3992 32.1706C75.7134 32.1706 82.5475 25.6412 82.5475 16.5C82.5475 7.35877 75.7134 0.829346 67.3992 0.829346C59.0851 0.829346 52.251 7.35877 52.251 16.5C52.251 25.6412 59.0851 32.1706 67.3992 32.1706ZM67.3992 2.65758C73.3193 2.65758 77.2369 7.70701 77.2369 16.5C77.2369 25.2929 73.3193 30.3424 67.3992 30.3424C61.4792 30.3424 57.5616 25.2929 57.5616 16.5C57.5616 7.70701 61.4792 2.65758 67.3992 2.65758Z" fill="#007EA8"/>
<path d="M101.45 30.3424C95.922 30.3424 91.569 25.4235 91.569 16.5C91.569 7.57642 95.922 2.65758 101.45 2.65758C106.674 2.65758 109.068 5.9223 109.938 9.66584H111.157L110.722 3.44112C108.981 2.35288 105.803 0.829346 101.45 0.829346C92.8749 0.829346 86.2584 7.35877 86.2584 16.5C86.2584 25.6412 92.8749 32.1706 101.45 32.1706C105.803 32.1706 108.981 30.6471 110.722 29.5588L111.288 23.3341H110.069C109.198 26.8165 107.196 30.3424 101.45 30.3424Z" fill="#007EA8"/>
<path d="M136.214 28.6012C136.214 30.2118 135.866 30.2988 132.862 30.5165V31.7353H144.572V30.5165C141.568 30.2988 141.22 30.2118 141.22 28.6012V4.39877C141.22 2.78817 141.568 2.70111 144.572 2.48347V1.26464H132.862V2.48347C135.866 2.70111 136.214 2.78817 136.214 4.39877V15.2811H122.067V4.39877C122.067 2.78817 122.415 2.70111 125.419 2.48347V1.26464H113.709V2.48347C116.713 2.70111 117.061 2.78817 117.061 4.39877V28.6012C117.061 30.2118 116.713 30.2988 113.709 30.5165V31.7353H125.419V30.5165C122.415 30.2988 122.067 30.2118 122.067 28.6012V17.1094H136.214V28.6012Z" fill="#007EA8"/>
<path d="M180.169 28.6012C180.169 30.2118 179.82 30.2988 176.817 30.5165V31.7353H188.526V30.5165C185.523 30.2988 185.174 30.2118 185.174 28.6012V4.39877C185.174 2.78817 185.523 2.70111 188.526 2.48347V1.26464H176.817V2.48347C179.82 2.70111 180.169 2.78817 180.169 4.39877V15.2811H166.021V4.39877C166.021 2.78817 166.37 2.70111 169.373 2.48347V1.26464H157.664V2.48347C160.667 2.70111 161.016 2.78817 161.016 4.39877V28.6012C161.016 30.2118 160.667 30.2988 157.664 30.5165V31.7353H169.373V30.5165C166.37 30.2988 166.021 30.2118 166.021 28.6012V17.1094H180.169V28.6012Z" fill="#007EA8"/>
<path d="M213.617 1.26464H191.374V2.48347C194.377 2.70111 194.725 2.78817 194.725 4.39877V28.6012C194.725 30.2118 194.377 30.2988 191.374 30.5165V31.7353H213.922L214.357 24.5094H213.138C212.007 28.7753 210.004 30.0812 206.652 30.0812H199.731V17.1094H203.431C206.087 17.1094 207.741 17.98 208.133 21.4623H209.351V10.9282H208.133C207.741 14.4106 206.087 15.2811 203.431 15.2811H199.731V2.91876H206.914C210.265 2.91876 211.745 4.747 212.616 8.49054H213.835L213.617 1.26464Z" fill="#007EA8"/>
<path d="M231.335 1.04699H228.375L219.364 28.0788C218.755 29.8635 218.189 30.0812 215.795 30.5165V31.7353H225.197V30.5165C221.672 30.0812 220.975 29.6023 221.802 26.9906L223.456 21.9847H233.903L235.993 27.8176C236.689 29.82 236.08 30.1682 233.033 30.5165V31.7353H244.873V30.5165C242.479 30.2118 242 29.6894 241.434 28.2529L231.335 1.04699ZM228.419 6.87995H228.506L233.25 20.1564H224.066L228.419 6.87995Z" fill="#007EA8"/>
<path d="M249.945 28.6012C249.945 30.2118 249.597 30.2988 246.593 30.5165V31.7353H268.706L269.141 24.5094H267.923C266.791 28.7753 264.789 30.0812 261.437 30.0812H254.951V4.39877C254.951 2.78817 255.299 2.70111 258.303 2.48347V1.26464H246.593V2.48347C249.597 2.70111 249.945 2.78817 249.945 4.39877V28.6012Z" fill="#007EA8"/>
<path d="M267.241 8.49054H268.46C269.331 4.747 270.637 2.91876 273.989 2.91876H276.47V28.6012C276.47 30.2118 276.121 30.2988 273.118 30.5165V31.7353H284.827V30.5165C281.824 30.2988 281.476 30.2118 281.476 28.6012V2.91876H283.957C287.309 2.91876 288.614 4.747 289.485 8.49054H290.704L290.486 1.26464H267.459L267.241 8.49054Z" fill="#007EA8"/>
<path d="M315.348 28.6012C315.348 30.2118 315 30.2988 311.996 30.5165V31.7353H323.706V30.5165C320.702 30.2988 320.354 30.2118 320.354 28.6012V4.39877C320.354 2.78817 320.702 2.70111 323.706 2.48347V1.26464H311.996V2.48347C315 2.70111 315.348 2.78817 315.348 4.39877V15.2811H301.201V4.39877C301.201 2.78817 301.549 2.70111 304.553 2.48347V1.26464H292.843V2.48347C295.847 2.70111 296.195 2.78817 296.195 4.39877V28.6012C296.195 30.2118 295.847 30.2988 292.843 30.5165V31.7353H304.553V30.5165C301.549 30.2988 301.201 30.2118 301.201 28.6012V17.1094H315.348V28.6012Z" fill="#007EA8"/>
</svg>
